<svg width="89" height="88" viewBox="0 0 89 88" fill="none" xmlns="http://www.w3.org/2000/svg">
<path d="M69.7137 79.032C63.5188 72.1927 54.5178 67.8889 44.5 67.8889C34.4822 67.8889 25.4805 72.1927 19.2855 79.032M44.5 87C20.4756 87 1 67.7482 1 44C1 20.2518 20.4756 1 44.5 1C68.5244 1 88 20.2518 88 44C88 67.7482 68.5244 87 44.5 87ZM44.5 53.5556C36.4919 53.5556 30 47.1383 30 39.2222C30 31.3061 36.4919 24.8889 44.5 24.8889C52.5081 24.8889 59 31.3061 59 39.2222C59 47.1383 52.5081 53.5556 44.5 53.5556Z" stroke="black" stroke-width="2" stroke-linecap="round" stroke-linejoin="round"/>
</svg>
