<?xml version="1.0" encoding="UTF-8" standalone="no"?>
<svg
   version="1.0"
   width="750.42548pt"
   height="624.51849pt"
   viewBox="0 0 750.42548 624.51849"
   preserveAspectRatio="xMidYMid"
   id="svg2"
   sodipodi:docname="LOGOEDUCA.svg"
   inkscape:version="1.4.2 (f4327f4, 2025-05-13)"
   xmlns:inkscape="http://www.inkscape.org/namespaces/inkscape"
   xmlns:sodipodi="http://sodipodi.sourceforge.net/DTD/sodipodi-0.dtd"
   xmlns="http://www.w3.org/2000/svg"
   xmlns:svg="http://www.w3.org/2000/svg">
  <defs
     id="defs2" />
  <sodipodi:namedview
     id="namedview2"
     pagecolor="#ffffff"
     bordercolor="#000000"
     borderopacity="0.25"
     inkscape:showpageshadow="2"
     inkscape:pageopacity="0.0"
     inkscape:pagecheckerboard="0"
     inkscape:deskcolor="#d1d1d1"
     inkscape:document-units="pt"
     inkscape:zoom="0.72508897"
     inkscape:cx="485.45767"
     inkscape:cy="352.37055"
     inkscape:window-width="1920"
     inkscape:window-height="1017"
     inkscape:window-x="-8"
     inkscape:window-y="-8"
     inkscape:window-maximized="1"
     inkscape:current-layer="svg2" />
  <g
     transform="matrix(0.1,0,0,-0.1,-270,685.61157)"
     fill="#000000"
     stroke="none"
     id="g2">
    <path
       d="m 5492,6850 c -78,-5 -157,-13 -175,-19 -17,-5 -63,-15 -102,-20 -63,-10 -125,-24 -290,-65 -27,-7 -61,-17 -75,-23 -14,-5 -56,-20 -95,-32 -100,-32 -249,-93 -328,-135 -38,-20 -75,-36 -84,-36 -8,0 -32,-13 -52,-29 -20,-15 -48,-34 -63,-42 -370,-189 -806,-597 -1063,-994 -21,-33 -56,-86 -77,-118 -21,-32 -38,-61 -38,-63 0,-12 -122,-254 -130,-259 -6,-4 -10,-15 -10,-26 0,-11 -8,-34 -17,-52 -22,-41 -63,-157 -63,-177 0,-9 -6,-22 -12,-28 -7,-7 -18,-36 -24,-65 -13,-55 -38,-150 -56,-206 -13,-42 -30,-152 -32,-206 l -1,-40 445,-2 c 245,-2 451,1 458,6 13,8 21,32 74,216 11,39 27,79 34,90 8,11 14,26 14,34 0,13 54,134 82,186 6,11 25,45 42,75 31,57 114,187 134,211 7,8 38,48 71,89 67,86 254,277 327,333 27,21 69,54 94,74 73,58 124,88 320,190 207,108 466,184 737,218 135,17 439,20 493,5 19,-5 78,-16 130,-24 121,-19 245,-51 360,-91 19,-7 53,-18 75,-25 56,-18 283,-130 339,-168 26,-18 59,-38 74,-46 16,-8 50,-33 77,-55 27,-23 55,-41 62,-41 7,0 16,-7 20,-15 5,-8 24,-26 43,-40 77,-57 268,-255 327,-341 15,-22 47,-67 71,-99 71,-98 132,-199 132,-218 0,-9 9,-25 20,-34 11,-10 20,-23 20,-29 0,-7 11,-34 24,-61 67,-133 140,-376 173,-573 24,-149 24,-568 -1,-690 -9,-47 -21,-95 -26,-107 l -10,-23 H 6301 c -902,0 -1646,-3 -1655,-6 -23,-9 -20,-28 16,-103 65,-134 248,-352 360,-428 23,-16 67,-46 95,-66 29,-20 55,-37 59,-37 3,0 36,-14 72,-31 97,-45 155,-65 262,-91 82,-19 122,-23 285,-23 119,0 205,4 230,12 226,67 279,85 330,113 33,18 79,45 102,61 23,16 44,29 48,29 3,0 28,18 56,40 56,44 84,49 120,21 13,-10 35,-22 49,-26 14,-4 30,-12 37,-17 7,-5 27,-18 45,-27 71,-38 217,-116 298,-159 47,-25 130,-69 185,-97 87,-45 170,-91 184,-102 33,-26 -325,-356 -497,-460 -20,-12 -49,-27 -64,-34 -16,-6 -28,-15 -28,-20 0,-7 -222,-119 -237,-119 -3,0 -24,-8 -47,-19 -60,-27 -201,-69 -351,-105 -157,-37 -471,-61 -595,-46 -47,6 -128,15 -180,21 -52,5 -115,16 -139,24 -25,8 -56,15 -70,15 -24,0 -121,26 -201,55 -177,63 -253,99 -400,184 -153,89 -227,143 -384,284 -91,81 -225,229 -278,307 -10,14 -35,51 -58,84 -47,68 -150,241 -150,252 0,4 -16,38 -35,75 -19,38 -35,74 -35,81 -1,7 -9,31 -20,53 -11,22 -19,45 -20,50 0,6 -11,46 -24,90 -14,44 -27,92 -30,107 -13,60 1,58 -455,58 -230,0 -433,-3 -450,-6 -25,-5 -31,-11 -31,-33 0,-36 24,-169 38,-211 14,-41 38,-131 56,-210 7,-31 18,-65 24,-75 6,-11 20,-49 32,-85 13,-36 31,-83 41,-106 11,-22 19,-47 19,-55 0,-8 4,-19 9,-24 6,-6 49,-86 96,-180 48,-93 98,-181 111,-196 13,-14 24,-30 24,-36 0,-18 154,-234 211,-297 10,-10 30,-34 46,-54 30,-39 318,-326 368,-368 58,-47 180,-138 235,-173 30,-20 71,-47 89,-61 106,-78 431,-235 606,-294 77,-26 152,-54 167,-62 14,-8 37,-14 50,-14 12,0 52,-9 86,-20 35,-11 78,-20 96,-20 17,0 40,-6 51,-14 11,-7 49,-16 85,-19 36,-3 119,-13 184,-22 96,-13 180,-16 420,-13 310,5 399,13 593,59 45,10 98,19 116,19 19,0 40,7 47,15 7,8 21,15 32,15 25,0 277,85 333,112 22,10 69,30 105,44 64,25 100,43 211,102 150,81 388,236 449,293 10,9 25,21 33,25 36,21 219,198 663,644 261,261 478,480 484,485 12,12 552,553 572,574 7,7 171,169 364,360 193,191 354,356 358,367 5,16 -62,87 -345,369 -192,193 -473,473 -622,624 -150,150 -277,278 -284,285 -6,6 -247,245 -535,531 -287,287 -552,545 -588,575 -35,30 -74,64 -86,75 -12,11 -28,25 -37,30 -21,13 -83,57 -187,130 -47,33 -96,66 -110,73 -14,7 -43,23 -65,35 -213,122 -545,260 -703,292 -18,4 -45,13 -60,21 -15,8 -44,14 -64,14 -20,0 -49,5 -65,12 -15,6 -53,15 -83,19 -30,4 -100,15 -155,24 -119,19 -509,28 -723,15 z"
       id="path1" />
    <path
       d="m 5655,4989 c -149,-14 -264,-45 -402,-110 -35,-16 -65,-29 -67,-29 -2,0 -48,-29 -101,-65 -106,-71 -189,-144 -250,-220 -22,-27 -43,-52 -47,-55 -11,-9 -53,-72 -107,-164 -49,-83 -61,-119 -42,-130 6,-4 2184,-10 2284,-7 71,3 -71,247 -239,413 -127,125 -307,246 -437,294 -82,30 -239,64 -345,74 -117,11 -118,11 -247,-1 z"
       id="path2" />
  </g>
</svg>
